<mxfile host="Electron" modified="2023-05-05T16:46:33.880Z" agent="Mozilla/5.0 (Macintosh; Intel Mac OS X 10_15_7) AppleWebKit/537.36 (KHTML, like Gecko) draw.io/21.2.8 Chrome/112.0.5615.165 Electron/24.2.0 Safari/537.36" etag="zxtdxnltnVtiZbROb-5L" version="21.2.8" type="device" pages="3">
  <diagram id="P-Ub2Zo7DyO1q1pQ69xT" name="General">
    <mxGraphModel dx="1434" dy="974" grid="1" gridSize="10" guides="1" tooltips="1" connect="1" arrows="1" fold="1" page="1" pageScale="1" pageWidth="1654" pageHeight="1169" math="0" shadow="0">
      <root>
        <mxCell id="0" />
        <mxCell id="1" parent="0" />
        <mxCell id="B1PkAI_9kEW6-1R2-f2k-3" value="Domain" style="ellipse;whiteSpace=wrap;html=1;aspect=fixed;fillColor=#008a00;fontColor=#ffffff;strokeColor=#005700;shadow=0;" parent="1" vertex="1">
          <mxGeometry x="289" y="60" width="1075" height="1075" as="geometry" />
        </mxCell>
        <mxCell id="BkcETpiSFPJ_p18Fw9qx-8" value="" style="verticalLabelPosition=bottom;verticalAlign=top;html=1;shape=mxgraph.basic.pie;startAngle=0;endAngle=0.5015914963824541;rotation=0;fillColor=#FF9933;fontColor=#ffffff;strokeColor=#A50040;" parent="1" vertex="1">
          <mxGeometry x="290" y="60" width="1080" height="1080" as="geometry" />
        </mxCell>
        <mxCell id="B1PkAI_9kEW6-1R2-f2k-2" value="" style="ellipse;whiteSpace=wrap;html=1;aspect=fixed;fillColor=#0050ef;fontColor=#ffffff;strokeColor=#001DBC;" parent="1" vertex="1">
          <mxGeometry x="439" y="200.75" width="787.5" height="787.5" as="geometry" />
        </mxCell>
        <mxCell id="yIa5ouiXyQNcb1I3Da2I-8" value="" style="ellipse;whiteSpace=wrap;html=1;aspect=fixed;fillColor=#FF9999;strokeColor=#6F0000;fontColor=#ffffff;" parent="1" vertex="1">
          <mxGeometry x="542" y="308" width="581.5" height="581.5" as="geometry" />
        </mxCell>
        <mxCell id="nYdbvyIWLuGrkKk3H6zq-2" value="" style="ellipse;whiteSpace=wrap;html=1;aspect=fixed;fillColor=#a20025;strokeColor=#6F0000;fontColor=#ffffff;" parent="1" vertex="1">
          <mxGeometry x="609" y="375" width="447.5" height="447.5" as="geometry" />
        </mxCell>
        <mxCell id="yIa5ouiXyQNcb1I3Da2I-3" value="" style="rounded=1;whiteSpace=wrap;html=1;fillColor=#FF6666;strokeColor=#6F0000;fontColor=#ffffff;" parent="1" vertex="1">
          <mxGeometry x="677.75" y="522.5" width="310" height="160" as="geometry" />
        </mxCell>
        <mxCell id="qfkdt46OJRpKLhANjtdH-1" value="Entities" style="rounded=1;whiteSpace=wrap;html=1;fontSize=16;fillColor=#ff6666;" parent="1" vertex="1">
          <mxGeometry x="707" y="572.5" width="110" height="44" as="geometry" />
        </mxCell>
        <mxCell id="yIa5ouiXyQNcb1I3Da2I-1" value="Value Objects" style="rounded=1;whiteSpace=wrap;html=1;fontSize=16;fillColor=#FF6666;" parent="1" vertex="1">
          <mxGeometry x="834" y="572.5" width="113" height="44" as="geometry" />
        </mxCell>
        <mxCell id="yIa5ouiXyQNcb1I3Da2I-2" value="Domain Events" style="rounded=1;whiteSpace=wrap;html=1;fontSize=16;fillColor=#FF6666;" parent="1" vertex="1">
          <mxGeometry x="705.5" y="625.5" width="128.5" height="44" as="geometry" />
        </mxCell>
        <mxCell id="yIa5ouiXyQNcb1I3Da2I-5" value="&lt;font style=&quot;font-size: 16px;&quot;&gt;Aggregate&lt;/font&gt;" style="text;html=1;strokeColor=none;fillColor=none;align=center;verticalAlign=middle;whiteSpace=wrap;rounded=0;" parent="1" vertex="1">
          <mxGeometry x="797" y="532.5" width="60" height="30" as="geometry" />
        </mxCell>
        <mxCell id="yIa5ouiXyQNcb1I3Da2I-6" value="&lt;font style=&quot;font-size: 16px;&quot;&gt;Domain&lt;/font&gt;" style="text;html=1;strokeColor=none;fillColor=none;align=center;verticalAlign=middle;whiteSpace=wrap;rounded=0;" parent="1" vertex="1">
          <mxGeometry x="797" y="460" width="60" height="30" as="geometry" />
        </mxCell>
        <mxCell id="yIa5ouiXyQNcb1I3Da2I-9" value="&lt;font style=&quot;font-size: 16px;&quot;&gt;Repositories&lt;/font&gt;" style="text;html=1;strokeColor=none;fillColor=none;align=center;verticalAlign=middle;whiteSpace=wrap;rounded=0;" parent="1" vertex="1">
          <mxGeometry x="802.75" y="330" width="60" height="30" as="geometry" />
        </mxCell>
        <mxCell id="yIa5ouiXyQNcb1I3Da2I-10" value="&lt;font style=&quot;font-size: 16px;&quot;&gt;Application&lt;/font&gt;" style="text;html=1;strokeColor=none;fillColor=none;align=center;verticalAlign=middle;whiteSpace=wrap;rounded=0;" parent="1" vertex="1">
          <mxGeometry x="802.75" y="220" width="60" height="30" as="geometry" />
        </mxCell>
        <mxCell id="yIa5ouiXyQNcb1I3Da2I-11" value="Domain Events Handlers" style="rounded=1;whiteSpace=wrap;html=1;fontSize=16;fillColor=#66B2FF;fontColor=#ffffff;strokeColor=#006EAF;" parent="1" vertex="1">
          <mxGeometry x="677.75" y="900" width="128.5" height="44" as="geometry" />
        </mxCell>
        <mxCell id="yIa5ouiXyQNcb1I3Da2I-12" value="Queries" style="rounded=1;whiteSpace=wrap;html=1;fontSize=16;fillColor=#66B2FF;fontColor=#ffffff;strokeColor=#006EAF;" parent="1" vertex="1">
          <mxGeometry x="688.5" y="260" width="128.5" height="44" as="geometry" />
        </mxCell>
        <mxCell id="yIa5ouiXyQNcb1I3Da2I-13" value="Commands" style="rounded=1;whiteSpace=wrap;html=1;fontSize=16;fillColor=#66B2FF;fontColor=#ffffff;strokeColor=#006EAF;" parent="1" vertex="1">
          <mxGeometry x="862.75" y="260" width="128.5" height="44" as="geometry" />
        </mxCell>
        <mxCell id="xHMOhwIqoWVoK6ZrsONU-1" value="WebHooks" style="rounded=1;whiteSpace=wrap;html=1;fontSize=16;fillColor=#97D077;strokeColor=#005700;fontColor=#ffffff;" parent="1" vertex="1">
          <mxGeometry x="300" y="500" width="128.5" height="44" as="geometry" />
        </mxCell>
        <mxCell id="xHMOhwIqoWVoK6ZrsONU-2" value="WebApi" style="rounded=1;whiteSpace=wrap;html=1;fontSize=16;fillColor=#97D077;strokeColor=#005700;fontColor=#ffffff;" parent="1" vertex="1">
          <mxGeometry x="300" y="550" width="128.5" height="44" as="geometry" />
        </mxCell>
        <mxCell id="xHMOhwIqoWVoK6ZrsONU-3" value="Integration Events" style="rounded=1;whiteSpace=wrap;html=1;fontSize=16;fillColor=#97D077;strokeColor=#005700;fontColor=#ffffff;" parent="1" vertex="1">
          <mxGeometry x="300" y="610" width="128.5" height="44" as="geometry" />
        </mxCell>
        <mxCell id="xHMOhwIqoWVoK6ZrsONU-4" value="&lt;font style=&quot;font-size: 16px;&quot;&gt;Presentation&lt;/font&gt;" style="text;html=1;strokeColor=none;fillColor=none;align=center;verticalAlign=middle;whiteSpace=wrap;rounded=0;" parent="1" vertex="1">
          <mxGeometry x="339.25" y="454" width="60" height="30" as="geometry" />
        </mxCell>
        <mxCell id="BkcETpiSFPJ_p18Fw9qx-9" value="&lt;font style=&quot;font-size: 16px;&quot;&gt;Infraestructure&lt;/font&gt;" style="text;html=1;strokeColor=none;fillColor=none;align=center;verticalAlign=middle;whiteSpace=wrap;rounded=0;" parent="1" vertex="1">
          <mxGeometry x="1250" y="460" width="60" height="30" as="geometry" />
        </mxCell>
        <mxCell id="BkcETpiSFPJ_p18Fw9qx-10" value="External APIs" style="rounded=1;whiteSpace=wrap;html=1;fontSize=16;fillColor=#FFCE9F;strokeColor=none;fontColor=#ffffff;" parent="1" vertex="1">
          <mxGeometry x="1226.5" y="500" width="128.5" height="44" as="geometry" />
        </mxCell>
        <mxCell id="BkcETpiSFPJ_p18Fw9qx-11" value="Event Bus" style="rounded=1;whiteSpace=wrap;html=1;fontSize=16;fillColor=#FFCE9F;strokeColor=none;fontColor=#ffffff;" parent="1" vertex="1">
          <mxGeometry x="1226.5" y="550" width="128.5" height="44" as="geometry" />
        </mxCell>
        <mxCell id="BkcETpiSFPJ_p18Fw9qx-12" value="Entity Framework" style="rounded=1;whiteSpace=wrap;html=1;fontSize=16;fillColor=#FFCE9F;strokeColor=none;fontColor=#ffffff;" parent="1" vertex="1">
          <mxGeometry x="1224.5" y="605" width="143.5" height="44" as="geometry" />
        </mxCell>
        <mxCell id="BkcETpiSFPJ_p18Fw9qx-13" value="Dapper" style="rounded=1;whiteSpace=wrap;html=1;fontSize=16;fillColor=#FFCE9F;strokeColor=none;fontColor=#ffffff;" parent="1" vertex="1">
          <mxGeometry x="1211.5" y="664" width="143.5" height="44" as="geometry" />
        </mxCell>
        <mxCell id="BkcETpiSFPJ_p18Fw9qx-14" value="Domain Events Notification Handlers" style="rounded=1;whiteSpace=wrap;html=1;fontSize=16;fillColor=#66B2FF;fontColor=#ffffff;strokeColor=#006EAF;" parent="1" vertex="1">
          <mxGeometry x="834" y="900" width="186" height="44" as="geometry" />
        </mxCell>
        <mxCell id="F6b2XNlcuDER3qA4uwXU-1" value="Domain Exceptions" style="rounded=1;whiteSpace=wrap;html=1;fontSize=16;fillColor=#FF6666;" parent="1" vertex="1">
          <mxGeometry x="840" y="625.5" width="110" height="44" as="geometry" />
        </mxCell>
      </root>
    </mxGraphModel>
  </diagram>
  <diagram name="Dependencies" id="zi6Ejhia7V-a2F5fpY6o">
    <mxGraphModel dx="1434" dy="974" grid="1" gridSize="10" guides="1" tooltips="1" connect="1" arrows="1" fold="1" page="1" pageScale="1" pageWidth="1654" pageHeight="1169" math="0" shadow="0">
      <root>
        <mxCell id="zmgnAT0viagxxQuJm_vw-0" />
        <mxCell id="zmgnAT0viagxxQuJm_vw-1" parent="zmgnAT0viagxxQuJm_vw-0" />
        <mxCell id="zmgnAT0viagxxQuJm_vw-16" style="edgeStyle=orthogonalEdgeStyle;rounded=0;orthogonalLoop=1;jettySize=auto;html=1;exitX=0.5;exitY=1;exitDx=0;exitDy=0;fontSize=10;" parent="zmgnAT0viagxxQuJm_vw-1" edge="1">
          <mxGeometry relative="1" as="geometry">
            <mxPoint x="250" y="630" as="sourcePoint" />
            <mxPoint x="250" y="630" as="targetPoint" />
          </mxGeometry>
        </mxCell>
        <mxCell id="zmgnAT0viagxxQuJm_vw-31" value="Domain" style="rounded=1;whiteSpace=wrap;html=1;fontSize=16;" parent="zmgnAT0viagxxQuJm_vw-1" vertex="1">
          <mxGeometry x="40" y="254" width="245" height="70" as="geometry" />
        </mxCell>
        <mxCell id="T1_D9YDXICz4o3n0c1NQ-2" value="Application" style="rounded=1;whiteSpace=wrap;html=1;fontSize=16;" parent="zmgnAT0viagxxQuJm_vw-1" vertex="1">
          <mxGeometry x="40" y="364" width="245" height="70" as="geometry" />
        </mxCell>
        <mxCell id="T1_D9YDXICz4o3n0c1NQ-3" value="Domain.Contracts" style="rounded=1;whiteSpace=wrap;html=1;fontSize=16;" parent="zmgnAT0viagxxQuJm_vw-1" vertex="1">
          <mxGeometry x="460" y="254" width="245" height="70" as="geometry" />
        </mxCell>
        <mxCell id="T1_D9YDXICz4o3n0c1NQ-4" value="Application.Contracts" style="rounded=1;whiteSpace=wrap;html=1;fontSize=16;" parent="zmgnAT0viagxxQuJm_vw-1" vertex="1">
          <mxGeometry x="460" y="364" width="245" height="70" as="geometry" />
        </mxCell>
        <mxCell id="T1_D9YDXICz4o3n0c1NQ-5" value="" style="endArrow=classic;html=1;rounded=0;fontSize=16;entryX=0;entryY=0.5;entryDx=0;entryDy=0;exitX=1;exitY=0.5;exitDx=0;exitDy=0;" parent="zmgnAT0viagxxQuJm_vw-1" source="zmgnAT0viagxxQuJm_vw-31" target="T1_D9YDXICz4o3n0c1NQ-3" edge="1">
          <mxGeometry width="50" height="50" relative="1" as="geometry">
            <mxPoint x="250" y="374" as="sourcePoint" />
            <mxPoint x="300" y="324" as="targetPoint" />
          </mxGeometry>
        </mxCell>
        <mxCell id="T1_D9YDXICz4o3n0c1NQ-6" value="" style="endArrow=classic;html=1;rounded=0;fontSize=16;entryX=0.5;entryY=1;entryDx=0;entryDy=0;" parent="zmgnAT0viagxxQuJm_vw-1" source="T1_D9YDXICz4o3n0c1NQ-4" target="T1_D9YDXICz4o3n0c1NQ-3" edge="1">
          <mxGeometry width="50" height="50" relative="1" as="geometry">
            <mxPoint x="250" y="354" as="sourcePoint" />
            <mxPoint x="300" y="304" as="targetPoint" />
          </mxGeometry>
        </mxCell>
        <mxCell id="T1_D9YDXICz4o3n0c1NQ-7" value="" style="endArrow=classic;html=1;rounded=0;fontSize=16;entryX=0;entryY=0.5;entryDx=0;entryDy=0;exitX=1;exitY=0.5;exitDx=0;exitDy=0;" parent="zmgnAT0viagxxQuJm_vw-1" source="T1_D9YDXICz4o3n0c1NQ-2" target="T1_D9YDXICz4o3n0c1NQ-4" edge="1">
          <mxGeometry width="50" height="50" relative="1" as="geometry">
            <mxPoint x="250" y="354" as="sourcePoint" />
            <mxPoint x="300" y="304" as="targetPoint" />
          </mxGeometry>
        </mxCell>
        <mxCell id="T1_D9YDXICz4o3n0c1NQ-8" value="" style="endArrow=classic;html=1;rounded=0;fontSize=16;entryX=0.5;entryY=1;entryDx=0;entryDy=0;exitX=0.5;exitY=0;exitDx=0;exitDy=0;" parent="zmgnAT0viagxxQuJm_vw-1" source="T1_D9YDXICz4o3n0c1NQ-2" target="zmgnAT0viagxxQuJm_vw-31" edge="1">
          <mxGeometry width="50" height="50" relative="1" as="geometry">
            <mxPoint x="160" y="354" as="sourcePoint" />
            <mxPoint x="210" y="304" as="targetPoint" />
          </mxGeometry>
        </mxCell>
        <mxCell id="T1_D9YDXICz4o3n0c1NQ-10" value="Presentation.WebApi" style="rounded=1;whiteSpace=wrap;html=1;fontSize=16;" parent="zmgnAT0viagxxQuJm_vw-1" vertex="1">
          <mxGeometry x="460" y="484" width="245" height="70" as="geometry" />
        </mxCell>
        <mxCell id="T1_D9YDXICz4o3n0c1NQ-12" value="Presentation.WebApi.Contracts" style="rounded=1;whiteSpace=wrap;html=1;fontSize=16;" parent="zmgnAT0viagxxQuJm_vw-1" vertex="1">
          <mxGeometry x="190" y="484" width="235" height="70" as="geometry" />
        </mxCell>
        <mxCell id="T1_D9YDXICz4o3n0c1NQ-14" value="" style="endArrow=classic;html=1;rounded=0;fontSize=16;entryX=0.5;entryY=1;entryDx=0;entryDy=0;" parent="zmgnAT0viagxxQuJm_vw-1" source="T1_D9YDXICz4o3n0c1NQ-10" target="T1_D9YDXICz4o3n0c1NQ-4" edge="1">
          <mxGeometry width="50" height="50" relative="1" as="geometry">
            <mxPoint x="592.5" y="374" as="sourcePoint" />
            <mxPoint x="592.5" y="314" as="targetPoint" />
          </mxGeometry>
        </mxCell>
        <mxCell id="T1_D9YDXICz4o3n0c1NQ-15" value="SharedKernel" style="rounded=1;whiteSpace=wrap;html=1;fontSize=16;" parent="zmgnAT0viagxxQuJm_vw-1" vertex="1">
          <mxGeometry x="860" y="70" width="245" height="70" as="geometry" />
        </mxCell>
        <mxCell id="T1_D9YDXICz4o3n0c1NQ-16" value="Backend" style="rounded=1;whiteSpace=wrap;html=1;fontSize=16;" parent="zmgnAT0viagxxQuJm_vw-1" vertex="1">
          <mxGeometry x="460" y="594" width="245" height="70" as="geometry" />
        </mxCell>
        <mxCell id="T1_D9YDXICz4o3n0c1NQ-17" value="" style="endArrow=classic;html=1;rounded=0;fontSize=16;entryX=0.5;entryY=1;entryDx=0;entryDy=0;exitX=0.5;exitY=0;exitDx=0;exitDy=0;" parent="zmgnAT0viagxxQuJm_vw-1" source="T1_D9YDXICz4o3n0c1NQ-16" target="T1_D9YDXICz4o3n0c1NQ-10" edge="1">
          <mxGeometry width="50" height="50" relative="1" as="geometry">
            <mxPoint x="592.5" y="494" as="sourcePoint" />
            <mxPoint x="592.5" y="444" as="targetPoint" />
          </mxGeometry>
        </mxCell>
        <mxCell id="V4didSuyjWuCHJ6jMfpO-2" value="Infrastructure.EntityFramework" style="rounded=1;whiteSpace=wrap;html=1;fontSize=16;" parent="zmgnAT0viagxxQuJm_vw-1" vertex="1">
          <mxGeometry x="1170" y="294" width="245" height="70" as="geometry" />
        </mxCell>
        <mxCell id="V4didSuyjWuCHJ6jMfpO-5" value="" style="endArrow=classic;html=1;rounded=0;fontSize=16;entryX=1;entryY=0;entryDx=0;entryDy=0;exitX=0;exitY=0.5;exitDx=0;exitDy=0;" parent="zmgnAT0viagxxQuJm_vw-1" source="V4didSuyjWuCHJ6jMfpO-2" target="T1_D9YDXICz4o3n0c1NQ-4" edge="1">
          <mxGeometry width="50" height="50" relative="1" as="geometry">
            <mxPoint x="745" y="399" as="sourcePoint" />
            <mxPoint x="660" y="294" as="targetPoint" />
            <Array as="points">
              <mxPoint x="770" y="330" />
              <mxPoint x="770" y="364" />
            </Array>
          </mxGeometry>
        </mxCell>
        <mxCell id="V4didSuyjWuCHJ6jMfpO-7" value="" style="endArrow=classic;html=1;rounded=0;fontSize=16;entryX=0.5;entryY=1;entryDx=0;entryDy=0;exitX=0;exitY=0.5;exitDx=0;exitDy=0;" parent="zmgnAT0viagxxQuJm_vw-1" source="T1_D9YDXICz4o3n0c1NQ-16" target="T1_D9YDXICz4o3n0c1NQ-2" edge="1">
          <mxGeometry width="50" height="50" relative="1" as="geometry">
            <mxPoint x="610" y="344" as="sourcePoint" />
            <mxPoint x="660" y="294" as="targetPoint" />
            <Array as="points">
              <mxPoint x="163" y="629" />
            </Array>
          </mxGeometry>
        </mxCell>
        <mxCell id="V4didSuyjWuCHJ6jMfpO-8" value="" style="endArrow=classic;html=1;rounded=0;fontSize=16;entryX=1;entryY=0.5;entryDx=0;entryDy=0;exitX=0;exitY=0.5;exitDx=0;exitDy=0;" parent="zmgnAT0viagxxQuJm_vw-1" source="T1_D9YDXICz4o3n0c1NQ-10" target="T1_D9YDXICz4o3n0c1NQ-12" edge="1">
          <mxGeometry width="50" height="50" relative="1" as="geometry">
            <mxPoint x="610" y="344" as="sourcePoint" />
            <mxPoint x="660" y="294" as="targetPoint" />
          </mxGeometry>
        </mxCell>
        <mxCell id="V4didSuyjWuCHJ6jMfpO-9" value="" style="endArrow=classic;html=1;rounded=0;fontSize=16;entryX=0.5;entryY=1;entryDx=0;entryDy=0;exitX=1;exitY=0.5;exitDx=0;exitDy=0;" parent="zmgnAT0viagxxQuJm_vw-1" source="T1_D9YDXICz4o3n0c1NQ-16" target="V4didSuyjWuCHJ6jMfpO-2" edge="1">
          <mxGeometry width="50" height="50" relative="1" as="geometry">
            <mxPoint x="610" y="344" as="sourcePoint" />
            <mxPoint x="867.5" y="434" as="targetPoint" />
            <Array as="points">
              <mxPoint x="1400" y="629" />
              <mxPoint x="1400" y="430" />
              <mxPoint x="1293" y="430" />
            </Array>
          </mxGeometry>
        </mxCell>
        <mxCell id="RuoEYXmSEYRVMoX5v29D-0" value="" style="endArrow=classic;html=1;rounded=0;fontSize=16;entryX=0.5;entryY=0;entryDx=0;entryDy=0;exitX=0.5;exitY=0;exitDx=0;exitDy=0;" parent="zmgnAT0viagxxQuJm_vw-1" source="V4didSuyjWuCHJ6jMfpO-2" target="zmgnAT0viagxxQuJm_vw-31" edge="1">
          <mxGeometry width="50" height="50" relative="1" as="geometry">
            <mxPoint x="867.5" y="364" as="sourcePoint" />
            <mxPoint x="628" y="330" as="targetPoint" />
            <Array as="points">
              <mxPoint x="1290" y="200" />
              <mxPoint x="163" y="200" />
            </Array>
          </mxGeometry>
        </mxCell>
        <mxCell id="RuoEYXmSEYRVMoX5v29D-1" value="Infrastructure.Dapper" style="rounded=1;whiteSpace=wrap;html=1;fontSize=16;" parent="zmgnAT0viagxxQuJm_vw-1" vertex="1">
          <mxGeometry x="1130" y="484" width="245" height="70" as="geometry" />
        </mxCell>
        <mxCell id="RuoEYXmSEYRVMoX5v29D-3" value="Infrastructure" style="rounded=1;whiteSpace=wrap;html=1;fontSize=16;" parent="zmgnAT0viagxxQuJm_vw-1" vertex="1">
          <mxGeometry x="1310" y="200" width="245" height="70" as="geometry" />
        </mxCell>
        <mxCell id="RuoEYXmSEYRVMoX5v29D-4" value="" style="endArrow=classic;html=1;rounded=0;fontSize=16;entryX=1;entryY=1;entryDx=0;entryDy=0;exitX=0.5;exitY=0;exitDx=0;exitDy=0;" parent="zmgnAT0viagxxQuJm_vw-1" source="RuoEYXmSEYRVMoX5v29D-1" target="T1_D9YDXICz4o3n0c1NQ-4" edge="1">
          <mxGeometry width="50" height="50" relative="1" as="geometry">
            <mxPoint x="898" y="519" as="sourcePoint" />
            <mxPoint x="788" y="330" as="targetPoint" />
            <Array as="points">
              <mxPoint x="1253" y="440" />
            </Array>
          </mxGeometry>
        </mxCell>
        <mxCell id="RuoEYXmSEYRVMoX5v29D-5" value="" style="endArrow=classic;html=1;rounded=0;fontSize=16;entryX=1;entryY=0;entryDx=0;entryDy=0;exitX=0;exitY=0.5;exitDx=0;exitDy=0;" parent="zmgnAT0viagxxQuJm_vw-1" source="RuoEYXmSEYRVMoX5v29D-3" target="T1_D9YDXICz4o3n0c1NQ-4" edge="1">
          <mxGeometry width="50" height="50" relative="1" as="geometry">
            <mxPoint x="790" y="380" as="sourcePoint" />
            <mxPoint x="840" y="330" as="targetPoint" />
            <Array as="points">
              <mxPoint x="740" y="235" />
              <mxPoint x="740" y="364" />
            </Array>
          </mxGeometry>
        </mxCell>
        <mxCell id="onXzBphPKqEHJYvt_2Zi-0" value="" style="endArrow=classic;html=1;rounded=0;fontSize=16;entryX=0.5;entryY=1;entryDx=0;entryDy=0;" parent="zmgnAT0viagxxQuJm_vw-1" target="RuoEYXmSEYRVMoX5v29D-1" edge="1">
          <mxGeometry width="50" height="50" relative="1" as="geometry">
            <mxPoint x="710" y="630" as="sourcePoint" />
            <mxPoint x="590" y="330" as="targetPoint" />
            <Array as="points">
              <mxPoint x="1253" y="630" />
            </Array>
          </mxGeometry>
        </mxCell>
        <mxCell id="onXzBphPKqEHJYvt_2Zi-1" value="" style="endArrow=classic;html=1;rounded=0;fontSize=16;entryX=0.5;entryY=1;entryDx=0;entryDy=0;exitX=1;exitY=0.5;exitDx=0;exitDy=0;" parent="zmgnAT0viagxxQuJm_vw-1" source="T1_D9YDXICz4o3n0c1NQ-16" target="RuoEYXmSEYRVMoX5v29D-3" edge="1">
          <mxGeometry width="50" height="50" relative="1" as="geometry">
            <mxPoint x="540" y="380" as="sourcePoint" />
            <mxPoint x="590" y="330" as="targetPoint" />
            <Array as="points">
              <mxPoint x="1430" y="630" />
            </Array>
          </mxGeometry>
        </mxCell>
        <mxCell id="cYxecFSFfM53W5MRpmuc-1" value="Presentation.IntegrationMessages" style="rounded=1;whiteSpace=wrap;html=1;fontSize=16;" parent="zmgnAT0viagxxQuJm_vw-1" vertex="1">
          <mxGeometry x="750" y="484" width="270" height="70" as="geometry" />
        </mxCell>
        <mxCell id="cYxecFSFfM53W5MRpmuc-4" value="" style="endArrow=classic;html=1;rounded=0;fontSize=16;entryX=0.75;entryY=1;entryDx=0;entryDy=0;exitX=0.5;exitY=0;exitDx=0;exitDy=0;" parent="zmgnAT0viagxxQuJm_vw-1" source="cYxecFSFfM53W5MRpmuc-1" target="T1_D9YDXICz4o3n0c1NQ-4" edge="1">
          <mxGeometry width="50" height="50" relative="1" as="geometry">
            <mxPoint x="592.5" y="494" as="sourcePoint" />
            <mxPoint x="592.5" y="444" as="targetPoint" />
          </mxGeometry>
        </mxCell>
        <mxCell id="cYxecFSFfM53W5MRpmuc-5" value="" style="endArrow=classic;html=1;rounded=0;fontSize=16;entryX=0.5;entryY=1;entryDx=0;entryDy=0;exitX=1;exitY=0.5;exitDx=0;exitDy=0;" parent="zmgnAT0viagxxQuJm_vw-1" source="T1_D9YDXICz4o3n0c1NQ-16" target="cYxecFSFfM53W5MRpmuc-1" edge="1">
          <mxGeometry width="50" height="50" relative="1" as="geometry">
            <mxPoint x="592.5" y="604" as="sourcePoint" />
            <mxPoint x="592.5" y="564" as="targetPoint" />
            <Array as="points">
              <mxPoint x="885" y="630" />
            </Array>
          </mxGeometry>
        </mxCell>
        <mxCell id="cYxecFSFfM53W5MRpmuc-6" value="Application.Contracts.IntegrationMessages" style="rounded=1;whiteSpace=wrap;html=1;fontSize=16;" parent="zmgnAT0viagxxQuJm_vw-1" vertex="1">
          <mxGeometry x="800" y="350" width="340" height="70" as="geometry" />
        </mxCell>
        <mxCell id="cYxecFSFfM53W5MRpmuc-7" value="" style="endArrow=classic;html=1;rounded=0;fontSize=16;entryX=0.25;entryY=1;entryDx=0;entryDy=0;exitX=0.5;exitY=0;exitDx=0;exitDy=0;" parent="zmgnAT0viagxxQuJm_vw-1" source="cYxecFSFfM53W5MRpmuc-1" target="cYxecFSFfM53W5MRpmuc-6" edge="1">
          <mxGeometry width="50" height="50" relative="1" as="geometry">
            <mxPoint x="865" y="494" as="sourcePoint" />
            <mxPoint x="653.75" y="444" as="targetPoint" />
          </mxGeometry>
        </mxCell>
        <mxCell id="d1Di07ocxUDKXVqs9p0F-0" value="" style="endArrow=classic;html=1;rounded=0;fontSize=16;entryX=0;entryY=0.5;entryDx=0;entryDy=0;exitX=1;exitY=0.5;exitDx=0;exitDy=0;" parent="zmgnAT0viagxxQuJm_vw-1" source="T1_D9YDXICz4o3n0c1NQ-2" target="cYxecFSFfM53W5MRpmuc-6" edge="1">
          <mxGeometry width="50" height="50" relative="1" as="geometry">
            <mxPoint x="295" y="409" as="sourcePoint" />
            <mxPoint x="470" y="409" as="targetPoint" />
            <Array as="points">
              <mxPoint x="285" y="340" />
              <mxPoint x="770" y="340" />
              <mxPoint x="770" y="385" />
            </Array>
          </mxGeometry>
        </mxCell>
      </root>
    </mxGraphModel>
  </diagram>
  <diagram id="FsKS9AMD03P7_id6XeDm" name="Model">
    <mxGraphModel dx="708" dy="974" grid="1" gridSize="10" guides="1" tooltips="1" connect="1" arrows="1" fold="1" page="1" pageScale="1" pageWidth="1654" pageHeight="1169" math="0" shadow="0">
      <root>
        <mxCell id="0" />
        <mxCell id="1" parent="0" />
        <mxCell id="LWFgGrCezfFVimDXoxHU-2" value="Message" style="swimlane;fontStyle=0;childLayout=stackLayout;horizontal=1;startSize=30;horizontalStack=0;resizeParent=1;resizeParentMax=0;resizeLast=0;collapsible=1;marginBottom=0;whiteSpace=wrap;html=1;" vertex="1" parent="1">
          <mxGeometry x="960" y="120" width="140" height="60" as="geometry" />
        </mxCell>
        <mxCell id="LWFgGrCezfFVimDXoxHU-75" value="ScheduledDateOnUtc" style="text;strokeColor=none;fillColor=none;align=left;verticalAlign=middle;spacingLeft=4;spacingRight=4;overflow=hidden;points=[[0,0.5],[1,0.5]];portConstraint=eastwest;rotatable=0;whiteSpace=wrap;html=1;" vertex="1" parent="LWFgGrCezfFVimDXoxHU-2">
          <mxGeometry y="30" width="140" height="30" as="geometry" />
        </mxCell>
        <mxCell id="LWFgGrCezfFVimDXoxHU-8" value="PushMessage" style="swimlane;fontStyle=0;childLayout=stackLayout;horizontal=1;startSize=30;horizontalStack=0;resizeParent=1;resizeParentMax=0;resizeLast=0;collapsible=1;marginBottom=0;whiteSpace=wrap;html=1;" vertex="1" parent="1">
          <mxGeometry x="810" y="200" width="140" height="150" as="geometry" />
        </mxCell>
        <mxCell id="LWFgGrCezfFVimDXoxHU-9" value="PushId" style="text;strokeColor=none;fillColor=none;align=left;verticalAlign=middle;spacingLeft=4;spacingRight=4;overflow=hidden;points=[[0,0.5],[1,0.5]];portConstraint=eastwest;rotatable=0;whiteSpace=wrap;html=1;" vertex="1" parent="LWFgGrCezfFVimDXoxHU-8">
          <mxGeometry y="30" width="140" height="30" as="geometry" />
        </mxCell>
        <mxCell id="LWFgGrCezfFVimDXoxHU-10" value="Title" style="text;strokeColor=none;fillColor=none;align=left;verticalAlign=middle;spacingLeft=4;spacingRight=4;overflow=hidden;points=[[0,0.5],[1,0.5]];portConstraint=eastwest;rotatable=0;whiteSpace=wrap;html=1;" vertex="1" parent="LWFgGrCezfFVimDXoxHU-8">
          <mxGeometry y="60" width="140" height="30" as="geometry" />
        </mxCell>
        <mxCell id="LWFgGrCezfFVimDXoxHU-53" value="Content" style="text;strokeColor=none;fillColor=none;align=left;verticalAlign=middle;spacingLeft=4;spacingRight=4;overflow=hidden;points=[[0,0.5],[1,0.5]];portConstraint=eastwest;rotatable=0;whiteSpace=wrap;html=1;" vertex="1" parent="LWFgGrCezfFVimDXoxHU-8">
          <mxGeometry y="90" width="140" height="30" as="geometry" />
        </mxCell>
        <mxCell id="LWFgGrCezfFVimDXoxHU-54" value="Image" style="text;strokeColor=none;fillColor=none;align=left;verticalAlign=middle;spacingLeft=4;spacingRight=4;overflow=hidden;points=[[0,0.5],[1,0.5]];portConstraint=eastwest;rotatable=0;whiteSpace=wrap;html=1;" vertex="1" parent="LWFgGrCezfFVimDXoxHU-8">
          <mxGeometry y="120" width="140" height="30" as="geometry" />
        </mxCell>
        <mxCell id="LWFgGrCezfFVimDXoxHU-12" value="Channel" style="swimlane;fontStyle=0;childLayout=stackLayout;horizontal=1;startSize=30;horizontalStack=0;resizeParent=1;resizeParentMax=0;resizeLast=0;collapsible=1;marginBottom=0;whiteSpace=wrap;html=1;" vertex="1" parent="1">
          <mxGeometry x="590" y="160" width="140" height="120" as="geometry" />
        </mxCell>
        <mxCell id="LWFgGrCezfFVimDXoxHU-13" value="Name" style="text;strokeColor=none;fillColor=none;align=left;verticalAlign=middle;spacingLeft=4;spacingRight=4;overflow=hidden;points=[[0,0.5],[1,0.5]];portConstraint=eastwest;rotatable=0;whiteSpace=wrap;html=1;" vertex="1" parent="LWFgGrCezfFVimDXoxHU-12">
          <mxGeometry y="30" width="140" height="30" as="geometry" />
        </mxCell>
        <mxCell id="LWFgGrCezfFVimDXoxHU-65" value="Description" style="text;strokeColor=none;fillColor=none;align=left;verticalAlign=middle;spacingLeft=4;spacingRight=4;overflow=hidden;points=[[0,0.5],[1,0.5]];portConstraint=eastwest;rotatable=0;whiteSpace=wrap;html=1;" vertex="1" parent="LWFgGrCezfFVimDXoxHU-12">
          <mxGeometry y="60" width="140" height="30" as="geometry" />
        </mxCell>
        <mxCell id="LWFgGrCezfFVimDXoxHU-14" value="ChannelSettingsId" style="text;strokeColor=none;fillColor=none;align=left;verticalAlign=middle;spacingLeft=4;spacingRight=4;overflow=hidden;points=[[0,0.5],[1,0.5]];portConstraint=eastwest;rotatable=0;whiteSpace=wrap;html=1;" vertex="1" parent="LWFgGrCezfFVimDXoxHU-12">
          <mxGeometry y="90" width="140" height="30" as="geometry" />
        </mxCell>
        <mxCell id="LWFgGrCezfFVimDXoxHU-16" value="EmailMessage" style="swimlane;fontStyle=0;childLayout=stackLayout;horizontal=1;startSize=30;horizontalStack=0;resizeParent=1;resizeParentMax=0;resizeLast=0;collapsible=1;marginBottom=0;whiteSpace=wrap;html=1;" vertex="1" parent="1">
          <mxGeometry x="960" y="200" width="140" height="420" as="geometry" />
        </mxCell>
        <mxCell id="LWFgGrCezfFVimDXoxHU-52" value="EmailId" style="text;strokeColor=none;fillColor=none;align=left;verticalAlign=middle;spacingLeft=4;spacingRight=4;overflow=hidden;points=[[0,0.5],[1,0.5]];portConstraint=eastwest;rotatable=0;whiteSpace=wrap;html=1;" vertex="1" parent="LWFgGrCezfFVimDXoxHU-16">
          <mxGeometry y="30" width="140" height="30" as="geometry" />
        </mxCell>
        <mxCell id="LWFgGrCezfFVimDXoxHU-17" value="From" style="text;strokeColor=none;fillColor=none;align=left;verticalAlign=middle;spacingLeft=4;spacingRight=4;overflow=hidden;points=[[0,0.5],[1,0.5]];portConstraint=eastwest;rotatable=0;whiteSpace=wrap;html=1;" vertex="1" parent="LWFgGrCezfFVimDXoxHU-16">
          <mxGeometry y="60" width="140" height="30" as="geometry" />
        </mxCell>
        <mxCell id="LWFgGrCezfFVimDXoxHU-29" value="To" style="text;strokeColor=none;fillColor=none;align=left;verticalAlign=middle;spacingLeft=4;spacingRight=4;overflow=hidden;points=[[0,0.5],[1,0.5]];portConstraint=eastwest;rotatable=0;whiteSpace=wrap;html=1;" vertex="1" parent="LWFgGrCezfFVimDXoxHU-16">
          <mxGeometry y="90" width="140" height="30" as="geometry" />
        </mxCell>
        <mxCell id="LWFgGrCezfFVimDXoxHU-18" value="Cc" style="text;strokeColor=none;fillColor=none;align=left;verticalAlign=middle;spacingLeft=4;spacingRight=4;overflow=hidden;points=[[0,0.5],[1,0.5]];portConstraint=eastwest;rotatable=0;whiteSpace=wrap;html=1;" vertex="1" parent="LWFgGrCezfFVimDXoxHU-16">
          <mxGeometry y="120" width="140" height="30" as="geometry" />
        </mxCell>
        <mxCell id="LWFgGrCezfFVimDXoxHU-31" value="Bcc" style="text;strokeColor=none;fillColor=none;align=left;verticalAlign=middle;spacingLeft=4;spacingRight=4;overflow=hidden;points=[[0,0.5],[1,0.5]];portConstraint=eastwest;rotatable=0;whiteSpace=wrap;html=1;" vertex="1" parent="LWFgGrCezfFVimDXoxHU-16">
          <mxGeometry y="150" width="140" height="30" as="geometry" />
        </mxCell>
        <mxCell id="LWFgGrCezfFVimDXoxHU-32" value="Subject" style="text;strokeColor=none;fillColor=none;align=left;verticalAlign=middle;spacingLeft=4;spacingRight=4;overflow=hidden;points=[[0,0.5],[1,0.5]];portConstraint=eastwest;rotatable=0;whiteSpace=wrap;html=1;" vertex="1" parent="LWFgGrCezfFVimDXoxHU-16">
          <mxGeometry y="180" width="140" height="30" as="geometry" />
        </mxCell>
        <mxCell id="LWFgGrCezfFVimDXoxHU-35" value="Body" style="text;strokeColor=none;fillColor=none;align=left;verticalAlign=middle;spacingLeft=4;spacingRight=4;overflow=hidden;points=[[0,0.5],[1,0.5]];portConstraint=eastwest;rotatable=0;whiteSpace=wrap;html=1;" vertex="1" parent="LWFgGrCezfFVimDXoxHU-16">
          <mxGeometry y="210" width="140" height="30" as="geometry" />
        </mxCell>
        <mxCell id="LWFgGrCezfFVimDXoxHU-30" value="Attachments" style="text;strokeColor=none;fillColor=none;align=left;verticalAlign=middle;spacingLeft=4;spacingRight=4;overflow=hidden;points=[[0,0.5],[1,0.5]];portConstraint=eastwest;rotatable=0;whiteSpace=wrap;html=1;" vertex="1" parent="LWFgGrCezfFVimDXoxHU-16">
          <mxGeometry y="240" width="140" height="30" as="geometry" />
        </mxCell>
        <mxCell id="LWFgGrCezfFVimDXoxHU-34" value="SentDateOnUtc" style="text;strokeColor=none;fillColor=none;align=left;verticalAlign=middle;spacingLeft=4;spacingRight=4;overflow=hidden;points=[[0,0.5],[1,0.5]];portConstraint=eastwest;rotatable=0;whiteSpace=wrap;html=1;" vertex="1" parent="LWFgGrCezfFVimDXoxHU-16">
          <mxGeometry y="270" width="140" height="30" as="geometry" />
        </mxCell>
        <mxCell id="LWFgGrCezfFVimDXoxHU-51" value="Priority" style="text;strokeColor=none;fillColor=none;align=left;verticalAlign=middle;spacingLeft=4;spacingRight=4;overflow=hidden;points=[[0,0.5],[1,0.5]];portConstraint=eastwest;rotatable=0;whiteSpace=wrap;html=1;" vertex="1" parent="LWFgGrCezfFVimDXoxHU-16">
          <mxGeometry y="300" width="140" height="30" as="geometry" />
        </mxCell>
        <mxCell id="LWFgGrCezfFVimDXoxHU-47" value="IsOpennedCollection" style="text;strokeColor=none;fillColor=none;align=left;verticalAlign=middle;spacingLeft=4;spacingRight=4;overflow=hidden;points=[[0,0.5],[1,0.5]];portConstraint=eastwest;rotatable=0;whiteSpace=wrap;html=1;" vertex="1" parent="LWFgGrCezfFVimDXoxHU-16">
          <mxGeometry y="330" width="140" height="30" as="geometry" />
        </mxCell>
        <mxCell id="LWFgGrCezfFVimDXoxHU-33" value="TrackingLabelId" style="text;strokeColor=none;fillColor=none;align=left;verticalAlign=middle;spacingLeft=4;spacingRight=4;overflow=hidden;points=[[0,0.5],[1,0.5]];portConstraint=eastwest;rotatable=0;whiteSpace=wrap;html=1;" vertex="1" parent="LWFgGrCezfFVimDXoxHU-16">
          <mxGeometry y="360" width="140" height="30" as="geometry" />
        </mxCell>
        <mxCell id="LWFgGrCezfFVimDXoxHU-49" value="IsRead" style="text;strokeColor=none;fillColor=none;align=left;verticalAlign=middle;spacingLeft=4;spacingRight=4;overflow=hidden;points=[[0,0.5],[1,0.5]];portConstraint=eastwest;rotatable=0;whiteSpace=wrap;html=1;" vertex="1" parent="LWFgGrCezfFVimDXoxHU-16">
          <mxGeometry y="390" width="140" height="30" as="geometry" />
        </mxCell>
        <mxCell id="LWFgGrCezfFVimDXoxHU-20" value="Recipient" style="swimlane;fontStyle=0;childLayout=stackLayout;horizontal=1;startSize=30;horizontalStack=0;resizeParent=1;resizeParentMax=0;resizeLast=0;collapsible=1;marginBottom=0;whiteSpace=wrap;html=1;" vertex="1" parent="1">
          <mxGeometry x="370" y="400" width="140" height="90" as="geometry" />
        </mxCell>
        <mxCell id="LWFgGrCezfFVimDXoxHU-21" value="UserId" style="text;strokeColor=none;fillColor=none;align=left;verticalAlign=middle;spacingLeft=4;spacingRight=4;overflow=hidden;points=[[0,0.5],[1,0.5]];portConstraint=eastwest;rotatable=0;whiteSpace=wrap;html=1;" vertex="1" parent="LWFgGrCezfFVimDXoxHU-20">
          <mxGeometry y="30" width="140" height="30" as="geometry" />
        </mxCell>
        <mxCell id="LWFgGrCezfFVimDXoxHU-22" value="ChannelsIds" style="text;strokeColor=none;fillColor=none;align=left;verticalAlign=middle;spacingLeft=4;spacingRight=4;overflow=hidden;points=[[0,0.5],[1,0.5]];portConstraint=eastwest;rotatable=0;whiteSpace=wrap;html=1;" vertex="1" parent="LWFgGrCezfFVimDXoxHU-20">
          <mxGeometry y="60" width="140" height="30" as="geometry" />
        </mxCell>
        <mxCell id="LWFgGrCezfFVimDXoxHU-36" value="SmsMessage" style="swimlane;fontStyle=0;childLayout=stackLayout;horizontal=1;startSize=30;horizontalStack=0;resizeParent=1;resizeParentMax=0;resizeLast=0;collapsible=1;marginBottom=0;whiteSpace=wrap;html=1;" vertex="1" parent="1">
          <mxGeometry x="1110" y="200" width="140" height="210" as="geometry" />
        </mxCell>
        <mxCell id="LWFgGrCezfFVimDXoxHU-37" value="SmsId" style="text;strokeColor=none;fillColor=none;align=left;verticalAlign=middle;spacingLeft=4;spacingRight=4;overflow=hidden;points=[[0,0.5],[1,0.5]];portConstraint=eastwest;rotatable=0;whiteSpace=wrap;html=1;" vertex="1" parent="LWFgGrCezfFVimDXoxHU-36">
          <mxGeometry y="30" width="140" height="30" as="geometry" />
        </mxCell>
        <mxCell id="LWFgGrCezfFVimDXoxHU-38" value="Sender" style="text;strokeColor=none;fillColor=none;align=left;verticalAlign=middle;spacingLeft=4;spacingRight=4;overflow=hidden;points=[[0,0.5],[1,0.5]];portConstraint=eastwest;rotatable=0;whiteSpace=wrap;html=1;" vertex="1" parent="LWFgGrCezfFVimDXoxHU-36">
          <mxGeometry y="60" width="140" height="30" as="geometry" />
        </mxCell>
        <mxCell id="LWFgGrCezfFVimDXoxHU-39" value="Recipient" style="text;strokeColor=none;fillColor=none;align=left;verticalAlign=middle;spacingLeft=4;spacingRight=4;overflow=hidden;points=[[0,0.5],[1,0.5]];portConstraint=eastwest;rotatable=0;whiteSpace=wrap;html=1;" vertex="1" parent="LWFgGrCezfFVimDXoxHU-36">
          <mxGeometry y="90" width="140" height="30" as="geometry" />
        </mxCell>
        <mxCell id="LWFgGrCezfFVimDXoxHU-40" value="Body" style="text;strokeColor=none;fillColor=none;align=left;verticalAlign=middle;spacingLeft=4;spacingRight=4;overflow=hidden;points=[[0,0.5],[1,0.5]];portConstraint=eastwest;rotatable=0;whiteSpace=wrap;html=1;" vertex="1" parent="LWFgGrCezfFVimDXoxHU-36">
          <mxGeometry y="120" width="140" height="30" as="geometry" />
        </mxCell>
        <mxCell id="LWFgGrCezfFVimDXoxHU-41" value="SentDateOnUtc" style="text;strokeColor=none;fillColor=none;align=left;verticalAlign=middle;spacingLeft=4;spacingRight=4;overflow=hidden;points=[[0,0.5],[1,0.5]];portConstraint=eastwest;rotatable=0;whiteSpace=wrap;html=1;" vertex="1" parent="LWFgGrCezfFVimDXoxHU-36">
          <mxGeometry y="150" width="140" height="30" as="geometry" />
        </mxCell>
        <mxCell id="LWFgGrCezfFVimDXoxHU-42" value="DeliveryDateOnUtc" style="text;strokeColor=none;fillColor=none;align=left;verticalAlign=middle;spacingLeft=4;spacingRight=4;overflow=hidden;points=[[0,0.5],[1,0.5]];portConstraint=eastwest;rotatable=0;whiteSpace=wrap;html=1;" vertex="1" parent="LWFgGrCezfFVimDXoxHU-36">
          <mxGeometry y="180" width="140" height="30" as="geometry" />
        </mxCell>
        <mxCell id="LWFgGrCezfFVimDXoxHU-59" value="Sender" style="swimlane;fontStyle=0;childLayout=stackLayout;horizontal=1;startSize=30;horizontalStack=0;resizeParent=1;resizeParentMax=0;resizeLast=0;collapsible=1;marginBottom=0;whiteSpace=wrap;html=1;" vertex="1" parent="1">
          <mxGeometry x="370" y="290" width="140" height="90" as="geometry" />
        </mxCell>
        <mxCell id="LWFgGrCezfFVimDXoxHU-60" value="UserId" style="text;strokeColor=none;fillColor=none;align=left;verticalAlign=middle;spacingLeft=4;spacingRight=4;overflow=hidden;points=[[0,0.5],[1,0.5]];portConstraint=eastwest;rotatable=0;whiteSpace=wrap;html=1;" vertex="1" parent="LWFgGrCezfFVimDXoxHU-59">
          <mxGeometry y="30" width="140" height="30" as="geometry" />
        </mxCell>
        <mxCell id="LWFgGrCezfFVimDXoxHU-61" value="ChannelIds" style="text;strokeColor=none;fillColor=none;align=left;verticalAlign=middle;spacingLeft=4;spacingRight=4;overflow=hidden;points=[[0,0.5],[1,0.5]];portConstraint=eastwest;rotatable=0;whiteSpace=wrap;html=1;" vertex="1" parent="LWFgGrCezfFVimDXoxHU-59">
          <mxGeometry y="60" width="140" height="30" as="geometry" />
        </mxCell>
        <mxCell id="LWFgGrCezfFVimDXoxHU-67" value="ChannelSettings" style="swimlane;fontStyle=0;childLayout=stackLayout;horizontal=1;startSize=30;horizontalStack=0;resizeParent=1;resizeParentMax=0;resizeLast=0;collapsible=1;marginBottom=0;whiteSpace=wrap;html=1;" vertex="1" parent="1">
          <mxGeometry x="590" y="310" width="140" height="120" as="geometry" />
        </mxCell>
        <mxCell id="LWFgGrCezfFVimDXoxHU-68" value="Name" style="text;strokeColor=none;fillColor=none;align=left;verticalAlign=middle;spacingLeft=4;spacingRight=4;overflow=hidden;points=[[0,0.5],[1,0.5]];portConstraint=eastwest;rotatable=0;whiteSpace=wrap;html=1;" vertex="1" parent="LWFgGrCezfFVimDXoxHU-67">
          <mxGeometry y="30" width="140" height="30" as="geometry" />
        </mxCell>
        <mxCell id="LWFgGrCezfFVimDXoxHU-69" value="Description" style="text;strokeColor=none;fillColor=none;align=left;verticalAlign=middle;spacingLeft=4;spacingRight=4;overflow=hidden;points=[[0,0.5],[1,0.5]];portConstraint=eastwest;rotatable=0;whiteSpace=wrap;html=1;" vertex="1" parent="LWFgGrCezfFVimDXoxHU-67">
          <mxGeometry y="60" width="140" height="30" as="geometry" />
        </mxCell>
        <mxCell id="LWFgGrCezfFVimDXoxHU-70" value="ChannelSettingsId" style="text;strokeColor=none;fillColor=none;align=left;verticalAlign=middle;spacingLeft=4;spacingRight=4;overflow=hidden;points=[[0,0.5],[1,0.5]];portConstraint=eastwest;rotatable=0;whiteSpace=wrap;html=1;" vertex="1" parent="LWFgGrCezfFVimDXoxHU-67">
          <mxGeometry y="90" width="140" height="30" as="geometry" />
        </mxCell>
      </root>
    </mxGraphModel>
  </diagram>
</mxfile>
